<?xml version="1.0" standalone="no"?>
<!DOCTYPE svg PUBLIC "-//W3C//DTD SVG 20010904//EN"
 "http://www.w3.org/TR/2001/REC-SVG-20010904/DTD/svg10.dtd">
<svg version="1.0" xmlns="http://www.w3.org/2000/svg"
 width="356.000000pt" height="356.000000pt" viewBox="0 0 356.000000 356.000000"
 preserveAspectRatio="xMidYMid meet">
<metadata>
Created by potrace 1.11, written by Peter Selinger 2001-2013
</metadata>
<g transform="translate(0.000000,356.000000) scale(0.100000,-0.100000)"
fill="#000000" stroke="none">
<path d="M467 3540 c-48 -9 -84 -35 -119 -87 -75 -111 -74 -378 2 -553 15 -36
31 -86 34 -113 8 -62 23 -94 63 -139 27 -31 31 -42 26 -72 -4 -27 0 -41 21
-68 42 -55 93 -177 106 -256 11 -59 11 -85 0 -141 -12 -67 -10 -215 6 -301 13
-71 56 -207 84 -265 38 -79 76 -118 188 -194 50 -35 92 -67 92 -72 0 -5 -19
-10 -42 -10 -34 -1 -29 -3 25 -10 61 -7 156 -47 117 -50 -8 0 -26 -3 -40 -5
-37 -7 -98 -12 -162 -13 -32 -1 -58 -4 -58 -8 0 -5 63 -7 140 -5 83 2 147 -1
157 -7 17 -10 17 -10 1 -12 -10 -1 -22 -3 -28 -4 -5 -1 -26 -3 -45 -4 -19 0
-35 -4 -35 -8 0 -5 36 -8 80 -7 44 1 83 -2 85 -6 7 -11 -18 -30 -52 -40 -21
-7 -15 -8 24 -4 45 5 53 3 62 -15 30 -55 10 -73 -97 -85 -34 -4 -110 -23 -169
-42 -105 -35 -246 -94 -240 -100 2 -2 61 16 131 41 70 24 143 47 163 50 19 3
39 8 44 11 5 3 9 3 9 0 0 -6 -101 -74 -161 -109 -65 -37 -209 -145 -209 -156
0 -6 39 20 88 56 242 183 345 231 479 224 12 0 31 -15 44 -32 l22 -32 -23 -17
c-24 -18 -24 -18 24 -13 32 4 47 2 45 -5 -2 -6 -33 -33 -69 -62 -78 -62 -230
-209 -273 -265 -17 -22 37 26 119 106 147 145 171 163 229 184 46 16 68 8 62
-23 -6 -32 1 -52 16 -47 7 2 26 -17 42 -43 67 -104 274 -147 445 -92 80 26
134 67 152 116 10 29 17 34 38 32 23 -3 25 0 23 36 l-3 38 38 -7 c67 -12 143
-73 311 -248 67 -71 90 -88 46 -34 -62 75 -173 181 -249 238 -79 60 -97 78
-79 80 47 7 65 0 186 -80 136 -90 166 -108 157 -99 -13 15 -134 99 -212 148
-49 30 -88 58 -88 62 0 3 12 21 27 38 26 31 29 32 92 28 82 -4 132 -28 305
-143 71 -47 131 -84 133 -82 8 8 -50 50 -162 117 -66 40 -124 76 -129 80 -13
13 122 -16 209 -45 44 -14 122 -46 173 -70 51 -24 90 -40 88 -36 -20 32 -324
146 -564 212 -87 24 -96 34 -67 76 10 15 23 20 38 17 12 -2 38 -7 57 -10 135
-23 367 -118 545 -223 48 -29 84 -47 81 -42 -4 5 -32 24 -64 42 -31 18 -59 35
-62 38 -5 6 -36 24 -110 63 -79 41 -223 97 -295 113 -90 21 -165 47 -165 57 0
22 143 18 272 -8 13 -2 39 -7 58 -10 102 -17 317 -109 351 -150 7 -8 22 -20
33 -25 26 -13 -22 29 -80 71 -75 53 -259 122 -361 135 -18 2 -48 7 -65 10 -18
3 -42 8 -53 10 -11 2 -40 4 -65 5 l-45 2 35 8 c19 5 97 8 173 7 75 -1 137 1
137 6 0 4 -26 7 -57 8 -32 0 -80 2 -108 4 -27 1 -70 3 -95 4 l-45 2 27 23 c19
17 44 26 90 31 35 3 74 8 88 10 27 4 167 17 188 18 6 0 12 5 12 10 0 9 -111 3
-223 -12 -31 -4 -57 -4 -57 0 0 5 44 39 98 78 165 118 185 148 237 353 19 73
39 148 44 166 6 19 8 75 5 125 -16 274 -10 299 118 505 16 27 18 38 10 56 -9
20 -6 28 20 52 39 37 56 72 68 136 6 28 22 76 36 107 43 89 65 220 60 358 -5
167 -39 249 -124 292 -51 27 -201 2 -302 -49 -131 -66 -289 -213 -386 -357
-80 -122 -88 -125 -219 -83 -77 24 -128 32 -305 45 -47 4 -102 10 -122 15 -52
11 -125 5 -248 -19 -58 -12 -128 -21 -155 -21 -28 0 -76 -9 -108 -20 -31 -11
-68 -20 -82 -20 -37 0 -92 56 -183 185 -82 116 -156 185 -267 251 -110 66
-240 105 -308 94z"/>
<path d="M577 1304 c-1 -1 -24 -5 -52 -8 -27 -4 -77 -14 -110 -22 -33 -9 -68
-18 -78 -20 -33 -6 -59 -16 -54 -20 2 -3 26 0 53 7 189 43 221 48 344 45 89
-3 111 -1 75 5 -48 7 -174 17 -178 13z"/>
<path d="M2870 1302 c0 -10 46 -9 56 1 4 4 -7 7 -24 7 -18 0 -32 -4 -32 -8z"/>
<path d="M2946 1298 c3 -5 8 -7 11 -5 2 3 20 1 39 -3 19 -4 34 -4 34 1 0 5
-12 9 -27 10 -16 0 -36 2 -46 4 -9 2 -14 -1 -11 -7z"/>
<path d="M3040 1291 c0 -10 239 -65 247 -57 11 10 1 13 -107 35 -58 12 -113
23 -122 25 -10 2 -18 1 -18 -3z"/>
<path d="M838 1273 c7 -3 16 -2 19 1 4 3 -2 6 -13 5 -11 0 -14 -3 -6 -6z"/>
<path d="M2770 1189 c0 -5 10 -9 23 -10 43 0 112 -12 154 -24 24 -7 43 -9 43
-4 0 10 -60 27 -122 35 -24 3 -55 7 -70 9 -16 2 -28 -1 -28 -6z"/>
<path d="M695 1179 c-81 -8 -169 -28 -161 -36 2 -3 28 0 58 6 77 15 107 20
160 23 25 2 44 6 41 11 -2 4 -7 6 -11 6 -4 -1 -43 -5 -87 -10z"/>
<path d="M875 1138 c-78 -8 -174 -41 -250 -84 -89 -50 -124 -82 -45 -41 135
70 277 114 378 116 17 1 32 5 32 10 0 9 -27 9 -115 -1z"/>
<path d="M1030 1070 c-13 -8 -12 -10 3 -10 9 0 17 5 17 10 0 12 -1 12 -20 0z"/>
<path d="M924 1040 c-94 -32 -291 -127 -414 -200 -127 -74 -87 -60 57 20 69
39 127 70 129 70 2 0 39 18 83 39 44 22 111 49 148 61 37 12 72 26 78 31 12
12 13 12 -81 -21z"/>
<path d="M1136 785 c-121 -82 -175 -129 -81 -70 91 57 215 150 193 144 -2 0
-52 -33 -112 -74z"/>
<path d="M1873 474 l-63 -35 0 -187 0 -188 175 1 175 0 43 43 43 42 42 -42 42
-42 152 -1 153 -1 44 43 44 43 -1 92 c0 51 0 98 -1 105 -1 6 -21 31 -45 55
l-45 43 -150 0 -150 0 -44 -43 -45 -44 0 -76 c0 -43 -1 -84 -1 -94 -1 -14 -18
-16 -148 -15 l-148 2 0 168 c0 92 -2 167 -5 167 -3 0 -33 -16 -67 -36z m713
-221 l1 -82 -103 1 c-90 0 -104 2 -105 16 -3 62 -1 130 4 138 3 5 50 9 104 9
l98 0 1 -82z"/>
<path d="M458 441 c-7 -2 -32 -22 -55 -44 l-43 -41 0 -102 0 -103 45 -43 44
-44 151 1 150 0 45 43 45 43 0 102 0 103 -45 44 -46 45 -139 0 c-77 0 -145 -1
-152 -4z m247 -186 l-1 -80 -104 0 -105 0 0 75 c-1 41 2 77 7 80 4 3 51 5 105
5 l98 0 0 -80z"/>
<path d="M925 400 l-45 -46 0 -101 0 -101 42 -41 c22 -23 44 -42 47 -42 3 -1
62 -2 131 -3 l125 -3 53 51 c28 28 52 53 52 56 0 3 -71 4 -157 3 l-158 -1 0
71 c0 40 3 77 7 83 4 6 47 10 110 9 l103 -1 53 49 52 50 0 -184 0 -184 175 0
175 0 52 53 53 52 -30 1 c-17 0 -88 1 -158 1 -70 1 -130 5 -133 10 -9 15 34
23 108 21 l73 -2 48 47 c26 25 47 49 47 52 0 3 -57 5 -127 5 -139 -2 -154 0
-147 19 3 9 35 12 112 11 l107 -1 53 49 c28 28 52 53 52 56 0 3 -187 6 -415 6
l-416 0 -44 -45z"/>
<path d="M2670 439 c0 -3 23 -29 51 -56 48 -48 54 -51 95 -47 51 4 46 25 45
-193 0 -73 4 -135 9 -138 4 -3 36 11 69 30 l60 36 3 132 3 132 42 0 c37 0 49
6 98 53 31 28 55 53 53 53 -11 5 -528 3 -528 -2z"/>
</g>
</svg>
